<svg width="40" height="40" viewBox="0 0 40 40" fill="none" xmlns="http://www.w3.org/2000/svg">
<path d="M3.11612 19.1161C2.62796 19.6043 2.62796 20.3957 3.11612 20.8839L11.0711 28.8388C11.5592 29.327 12.3507 29.327 12.8388 28.8388C13.327 28.3507 13.327 27.5592 12.8388 27.0711L5.76777 20L12.8388 12.9289C13.327 12.4408 13.327 11.6493 12.8388 11.1612C12.3507 10.673 11.5592 10.673 11.0711 11.1612L3.11612 19.1161ZM36.8839 20.8839C37.372 20.3957 37.372 19.6043 36.8839 19.1161L28.9289 11.1612C28.4408 10.673 27.6493 10.673 27.1612 11.1612C26.673 11.6493 26.673 12.4408 27.1612 12.9289L34.2322 20L27.1612 27.0711C26.673 27.5592 26.673 28.3507 27.1612 28.8388C27.6493 29.327 28.4408 29.327 28.9289 28.8388L36.8839 20.8839ZM4 21.25H36V18.75H4V21.25Z" fill="#343434"/>
</svg>
