<svg width="40" height="40" viewBox="0 0 40 40" fill="none" xmlns="http://www.w3.org/2000/svg">
<path d="M19.985 5C11.705 5 5 11.72 5 20C5 28.28 11.705 35 19.985 35C28.28 35 35 28.28 35 20C35 11.72 28.28 5 19.985 5ZM20 32C13.37 32 8 26.63 8 20C8 13.37 13.37 8 20 8C26.63 8 32 13.37 32 20C32 26.63 26.63 32 20 32ZM19.67 12.5H19.58C18.98 12.5 18.5 12.98 18.5 13.58V20.66C18.5 21.185 18.77 21.68 19.235 21.95L25.46 25.685C25.97 25.985 26.63 25.835 26.93 25.325C27.245 24.815 27.08 24.14 26.555 23.84L20.75 20.39V13.58C20.75 12.98 20.27 12.5 19.67 12.5Z" fill="#343434"/>
</svg>
