<svg width="310" height="234" viewBox="0 0 310 234" fill="none" xmlns="http://www.w3.org/2000/svg">
<path d="M179.535 13.0025C179.535 5.82144 173.714 0 166.533 0C159.352 0 153.53 5.82144 153.53 13.0025V25.9189C153.53 33.1 159.352 38.9214 166.533 38.9214C173.714 38.9214 179.535 33.1 179.535 25.9189V13.0025Z" fill="url(#paint0_radial_180_1387)"/>
<path d="M179.535 13.0025C179.535 5.82144 173.714 0 166.533 0C159.352 0 153.53 5.82144 153.53 13.0025V25.9189C153.53 33.1 159.352 38.9214 166.533 38.9214C173.714 38.9214 179.535 33.1 179.535 25.9189V13.0025Z" fill="url(#paint1_radial_180_1387)"/>
<path fill-rule="evenodd" clip-rule="evenodd" d="M283.159 89.2089H62.0879C63.5997 88.1122 64.8234 86.6385 65.6224 84.9114L88.019 36.4829C91.2651 29.4641 98.2927 24.9705 106.026 24.9705H232.21C240.247 24.9705 247.647 29.3451 251.523 36.3859L278.684 85.7391C279.645 87.4861 281.278 88.7261 283.159 89.2089Z" fill="url(#paint2_linear_180_1387)"/>
<path fill-rule="evenodd" clip-rule="evenodd" d="M283.159 89.2089H62.0879C63.5997 88.1122 64.8234 86.6385 65.6224 84.9114L88.019 36.4829C91.2651 29.4641 98.2927 24.9705 106.026 24.9705H232.21C240.247 24.9705 247.647 29.3451 251.523 36.3859L278.684 85.7391C279.645 87.4861 281.278 88.7261 283.159 89.2089Z" fill="url(#paint3_linear_180_1387)"/>
<path fill-rule="evenodd" clip-rule="evenodd" d="M283.159 89.2089H62.0879C63.5997 88.1122 64.8234 86.6385 65.6224 84.9114L88.019 36.4829C91.2651 29.4641 98.2927 24.9705 106.026 24.9705H232.21C240.247 24.9705 247.647 29.3451 251.523 36.3859L278.684 85.7391C279.645 87.4861 281.278 88.7261 283.159 89.2089Z" fill="url(#paint4_linear_180_1387)"/>
<path fill-rule="evenodd" clip-rule="evenodd" d="M283.159 89.2089H62.0879C63.5997 88.1122 64.8234 86.6385 65.6224 84.9114L88.019 36.4829C91.2651 29.4641 98.2927 24.9705 106.026 24.9705H232.21C240.247 24.9705 247.647 29.3451 251.523 36.3859L278.684 85.7391C279.645 87.4861 281.278 88.7261 283.159 89.2089Z" fill="url(#paint5_radial_180_1387)"/>
<path d="M62.0889 89.2095C61.2002 89.8532 60.2119 90.3679 59.1517 90.7261L25.4662 102.122C10.2443 107.271 0 121.551 0 137.62V172.674C0 187.892 12.3365 200.229 27.555 200.229H282.338C297.557 200.229 309.893 187.892 309.893 172.674V114.393C309.893 100.607 298.718 89.4332 284.934 89.4332C284.327 89.4332 283.732 89.3561 283.16 89.2095H62.0889Z" fill="url(#paint6_linear_180_1387)"/>
<path d="M62.0889 89.21C61.2002 89.8536 60.2119 90.3684 59.1517 90.7266L25.4662 102.122C10.2443 107.272 0 121.552 0 137.621V172.674C0 187.892 12.3365 200.229 27.555 200.229H282.338C297.557 200.229 309.893 187.892 309.893 172.674V114.393C309.893 100.608 298.718 89.4337 284.934 89.4337C284.327 89.4337 283.732 89.3566 283.16 89.21H62.0889Z" fill="url(#paint7_linear_180_1387)"/>
<path d="M62.0889 89.21C61.2002 89.8536 60.2119 90.3684 59.1517 90.7266L25.4662 102.122C10.2443 107.272 0 121.552 0 137.621V172.674C0 187.892 12.3365 200.229 27.555 200.229H282.338C297.557 200.229 309.893 187.892 309.893 172.674V114.393C309.893 100.608 298.718 89.4337 284.934 89.4337C284.327 89.4337 283.732 89.3566 283.16 89.21H62.0889Z" fill="url(#paint8_linear_180_1387)"/>
<path d="M62.0889 89.21C61.2002 89.8536 60.2119 90.3684 59.1517 90.7266L25.4662 102.122C10.2443 107.272 0 121.552 0 137.621V172.674C0 187.892 12.3365 200.229 27.555 200.229H282.338C297.557 200.229 309.893 187.892 309.893 172.674V114.393C309.893 100.608 298.718 89.4337 284.934 89.4337C284.327 89.4337 283.732 89.3566 283.16 89.21H62.0889Z" fill="url(#paint9_linear_180_1387)"/>
<path d="M62.0889 89.21C61.2002 89.8536 60.2119 90.3684 59.1517 90.7266L25.4662 102.122C10.2443 107.272 0 121.552 0 137.621V172.674C0 187.892 12.3365 200.229 27.555 200.229H282.338C297.557 200.229 309.893 187.892 309.893 172.674V114.393C309.893 100.608 298.718 89.4337 284.934 89.4337C284.327 89.4337 283.732 89.3566 283.16 89.21H62.0889Z" fill="url(#paint10_linear_180_1387)"/>
<path d="M82.9273 88.4767C82.7227 85.4953 84.8873 78.2924 89.2992 73.6676C92.5242 70.2871 97.8908 69.941 101.998 70.3709C104.33 70.6156 105.971 72.5885 106.152 74.8866L108.027 98.6621C108.207 100.96 106.897 103.167 104.631 103.773C100.642 104.842 95.2885 105.34 91.573 102.508C86.4909 98.6313 83.1924 91.4537 82.9273 88.4767Z" fill="url(#paint11_linear_180_1387)"/>
<path d="M62.71 88.7224C63.7372 89.0387 64.8284 89.2096 65.9592 89.2096H143.63C149.717 89.2096 154.652 84.2739 154.652 78.1876V50.6326C154.652 44.5451 149.717 39.6106 143.63 39.6106H86.5724L65.6215 84.9121C64.9353 86.3957 63.9356 87.6918 62.71 88.7224Z" fill="url(#paint12_linear_180_1387)"/>
<path d="M62.71 88.7224C63.7372 89.0387 64.8284 89.2096 65.9592 89.2096H143.63C149.717 89.2096 154.652 84.2739 154.652 78.1876V50.6326C154.652 44.5451 149.717 39.6106 143.63 39.6106H86.5724L65.6215 84.9121C64.9353 86.3957 63.9356 87.6918 62.71 88.7224Z" fill="url(#paint13_linear_180_1387)"/>
<path d="M253.295 39.6108L278.683 85.7401C279.644 87.4871 281.276 88.7271 283.158 89.2098H187.545C181.458 89.2098 176.523 84.2742 176.523 78.1878V50.6328C176.523 44.5454 181.458 39.6108 187.545 39.6108H253.295Z" fill="url(#paint14_radial_180_1387)"/>
<path d="M253.295 39.6108L278.683 85.7401C279.644 87.4871 281.276 88.7271 283.158 89.2098H187.545C181.458 89.2098 176.523 84.2742 176.523 78.1878V50.6328C176.523 44.5454 181.458 39.6108 187.545 39.6108H253.295Z" fill="url(#paint15_linear_180_1387)"/>
<path d="M253.295 39.6108L278.683 85.7401C279.644 87.4871 281.276 88.7271 283.158 89.2098H187.545C181.458 89.2098 176.523 84.2742 176.523 78.1878V50.6328C176.523 44.5454 181.458 39.6108 187.545 39.6108H253.295Z" fill="url(#paint16_linear_180_1387)"/>
<path d="M253.295 39.6108L278.683 85.7401C279.644 87.4871 281.276 88.7271 283.158 89.2098H187.545C181.458 89.2098 176.523 84.2742 176.523 78.1878V50.6328C176.523 44.5454 181.458 39.6108 187.545 39.6108H253.295Z" fill="url(#paint17_radial_180_1387)"/>
<path d="M253.295 39.6108L278.683 85.7401C279.644 87.4871 281.276 88.7271 283.158 89.2098H187.545C181.458 89.2098 176.523 84.2742 176.523 78.1878V50.6328C176.523 44.5454 181.458 39.6108 187.545 39.6108H253.295Z" fill="url(#paint18_linear_180_1387)"/>
<path d="M308.198 135.02V168.172H301.982C293.563 168.172 286.739 160.679 286.739 151.596C286.739 142.513 293.563 135.02 301.982 135.02H308.198Z" stroke="url(#paint19_linear_180_1387)" stroke-width="0.706934"/>
<path d="M309.9 135.02V168.172H303.193C294.11 168.172 286.746 160.679 286.746 151.596C286.746 142.513 294.11 135.02 303.193 135.02H309.9Z" fill="url(#paint20_linear_180_1387)"/>
<path d="M2.23828 168.744V138.451C2.23828 137.578 2.26506 136.71 2.31929 135.85H15.613C20.0206 135.85 23.5934 139.798 23.5934 144.667V159.926C23.5934 164.796 20.0206 168.744 15.613 168.744H2.23828Z" stroke="url(#paint21_linear_180_1387)" stroke-width="0.706934"/>
<path d="M0 168.743V138.45C0 137.577 0.0296498 136.71 0.0894993 135.849H14.7779C19.6477 135.849 23.5953 139.797 23.5953 144.667V159.926C23.5953 164.795 19.6477 168.743 14.7779 168.743H0Z" fill="url(#paint22_radial_180_1387)"/>
<path d="M0 168.743V138.45C0 137.577 0.0296498 136.71 0.0894993 135.849H14.7779C19.6477 135.849 23.5953 139.797 23.5953 144.667V159.926C23.5953 164.795 19.6477 168.743 14.7779 168.743H0Z" fill="url(#paint23_linear_180_1387)"/>
<path d="M110.995 112.601H133.285V134.891H110.995V112.601Z" fill="url(#paint24_linear_180_1387)"/>
<path d="M133.287 134.89H155.577V157.18H133.287V134.89Z" fill="url(#paint25_linear_180_1387)"/>
<path d="M155.577 112.601H177.867V134.891H155.577V112.601Z" fill="url(#paint26_linear_180_1387)"/>
<path d="M177.87 134.89H200.16V157.18H177.87V134.89Z" fill="url(#paint27_linear_180_1387)"/>
<path d="M200.161 112.601H222.451V134.891H200.161V112.601Z" fill="url(#paint28_linear_180_1387)"/>
<path d="M88.0898 86.4025C88.1202 83.4133 88.9259 76.2016 93.6874 71.9383C97.1681 68.8213 102.545 68.8984 106.605 69.649C108.911 70.0767 110.392 72.172 110.392 74.4778V98.3272C110.392 100.633 108.911 102.728 106.605 103.156C102.545 103.908 97.1681 103.984 93.6874 100.867C88.9259 96.6033 88.1202 89.3916 88.0898 86.4025Z" fill="url(#paint29_radial_180_1387)"/>
<path d="M88.0898 86.4025C88.1202 83.4133 88.9259 76.2016 93.6874 71.9383C97.1681 68.8213 102.545 68.8984 106.605 69.649C108.911 70.0767 110.392 72.172 110.392 74.4778V98.3272C110.392 100.633 108.911 102.728 106.605 103.156C102.545 103.908 97.1681 103.984 93.6874 100.867C88.9259 96.6033 88.1202 89.3916 88.0898 86.4025Z" fill="url(#paint30_radial_180_1387)"/>
<path d="M88.0898 86.4025C88.1202 83.4133 88.9259 76.2016 93.6874 71.9383C97.1681 68.8213 102.545 68.8984 106.605 69.649C108.911 70.0767 110.392 72.172 110.392 74.4778V98.3272C110.392 100.633 108.911 102.728 106.605 103.156C102.545 103.908 97.1681 103.984 93.6874 100.867C88.9259 96.6033 88.1202 89.3916 88.0898 86.4025Z" fill="url(#paint31_radial_180_1387)"/>
<path d="M115.466 200.229H29.8485C29.6703 198.636 29.5781 197.017 29.5781 195.376C29.5781 171.584 48.8653 152.296 72.6577 152.296C96.4496 152.296 115.737 171.584 115.737 195.376C115.737 197.017 115.644 198.636 115.466 200.229Z" fill="url(#paint32_linear_180_1387)"/>
<path d="M280.988 200.229H195.371C195.193 198.636 195.101 197.017 195.101 195.376C195.101 171.584 214.388 152.296 238.18 152.296C261.972 152.296 281.26 171.584 281.26 195.376C281.26 197.017 281.167 198.636 280.988 200.229Z" fill="url(#paint33_linear_180_1387)"/>
<path d="M72.6565 233.632C93.7854 233.632 110.914 216.504 110.914 195.375C110.914 174.246 93.7854 157.118 72.6565 157.118C51.5277 157.118 34.3994 174.246 34.3994 195.375C34.3994 216.504 51.5277 233.632 72.6565 233.632Z" fill="url(#paint34_linear_180_1387)"/>
<path d="M72.6565 233.632C93.7854 233.632 110.914 216.504 110.914 195.375C110.914 174.246 93.7854 157.118 72.6565 157.118C51.5277 157.118 34.3994 174.246 34.3994 195.375C34.3994 216.504 51.5277 233.632 72.6565 233.632Z" fill="url(#paint35_radial_180_1387)"/>
<path d="M74.7443 219.807C89.3918 219.807 101.266 207.933 101.266 193.285C101.266 178.638 89.3918 166.764 74.7443 166.764C60.0968 166.764 48.2227 178.638 48.2227 193.285C48.2227 207.933 60.0968 219.807 74.7443 219.807Z" stroke="url(#paint36_linear_180_1387)" stroke-width="3.00447"/>
<path d="M238.191 233.632C259.32 233.632 276.448 216.504 276.448 195.375C276.448 174.246 259.32 157.118 238.191 157.118C217.062 157.118 199.934 174.246 199.934 195.375C199.934 216.504 217.062 233.632 238.191 233.632Z" fill="url(#paint37_linear_180_1387)"/>
<path d="M238.191 233.632C259.32 233.632 276.448 216.504 276.448 195.375C276.448 174.246 259.32 157.118 238.191 157.118C217.062 157.118 199.934 174.246 199.934 195.375C199.934 216.504 217.062 233.632 238.191 233.632Z" fill="url(#paint38_radial_180_1387)"/>
<path d="M240.253 219.807C254.901 219.807 266.775 207.933 266.775 193.285C266.775 178.638 254.901 166.764 240.253 166.764C225.606 166.764 213.731 178.638 213.731 193.285C213.731 207.933 225.606 219.807 240.253 219.807Z" stroke="url(#paint39_linear_180_1387)" stroke-width="3.00447"/>
<path d="M72.6509 209.491C80.4468 209.491 86.7667 203.171 86.7667 195.376C86.7667 187.58 80.4468 181.26 72.6509 181.26C64.855 181.26 58.5352 187.58 58.5352 195.376C58.5352 203.171 64.855 209.491 72.6509 209.491Z" fill="url(#paint40_linear_180_1387)"/>
<path d="M238.182 209.492C245.978 209.492 252.298 203.172 252.298 195.376C252.298 187.58 245.978 181.26 238.182 181.26C230.386 181.26 224.066 187.58 224.066 195.376C224.066 203.172 230.386 209.492 238.182 209.492Z" fill="url(#paint41_linear_180_1387)"/>
<defs>
<radialGradient id="paint0_radial_180_1387" cx="0" cy="0" r="1" gradientUnits="userSpaceOnUse" gradientTransform="translate(169.708 27.006) rotate(-90) scale(35.7533 20.6918)">
<stop stop-color="#ECDED0"/>
<stop offset="1" stop-color="#C7BECB"/>
</radialGradient>
<radialGradient id="paint1_radial_180_1387" cx="0" cy="0" r="1" gradientUnits="userSpaceOnUse" gradientTransform="translate(172.254 1.18528e-06) rotate(117.326) scale(16.1677 14.1551)">
<stop offset="0.409008" stop-color="#ECE8EF"/>
<stop offset="1" stop-color="#ECE8EF" stop-opacity="0"/>
</radialGradient>
<linearGradient id="paint2_linear_180_1387" x1="97.2258" y1="65.1291" x2="252.473" y2="65.1291" gradientUnits="userSpaceOnUse">
<stop stop-color="#FFDA56"/>
<stop offset="1" stop-color="#FFD854"/>
</linearGradient>
<linearGradient id="paint3_linear_180_1387" x1="156.719" y1="94.2029" x2="156.719" y2="47.3594" gradientUnits="userSpaceOnUse">
<stop stop-color="#FFDE4B"/>
<stop offset="1" stop-color="#FFDE4B" stop-opacity="0"/>
</linearGradient>
<linearGradient id="paint4_linear_180_1387" x1="80.5987" y1="44.6039" x2="98.8537" y2="53.2143" gradientUnits="userSpaceOnUse">
<stop stop-color="#CEA549"/>
<stop offset="1" stop-color="#CEA549" stop-opacity="0"/>
</linearGradient>
<radialGradient id="paint5_radial_180_1387" cx="0" cy="0" r="1" gradientUnits="userSpaceOnUse" gradientTransform="translate(247.024 43.2626) rotate(-127.921) scale(17.5156 12.1467)">
<stop stop-color="#FFEB7F"/>
<stop offset="1" stop-color="#FFEB7F" stop-opacity="0"/>
</radialGradient>
<linearGradient id="paint6_linear_180_1387" x1="49.2559" y1="158.613" x2="309.893" y2="158.613" gradientUnits="userSpaceOnUse">
<stop stop-color="#FFC25A"/>
<stop offset="1" stop-color="#FFBE59"/>
</linearGradient>
<linearGradient id="paint7_linear_180_1387" x1="154.947" y1="201.903" x2="154.947" y2="171.469" gradientUnits="userSpaceOnUse">
<stop stop-color="#D26261"/>
<stop offset="1" stop-color="#D26261" stop-opacity="0"/>
</linearGradient>
<linearGradient id="paint8_linear_180_1387" x1="154.947" y1="203.735" x2="154.947" y2="194.091" gradientUnits="userSpaceOnUse">
<stop stop-color="#C76194"/>
<stop offset="1" stop-color="#C76194" stop-opacity="0"/>
</linearGradient>
<linearGradient id="paint9_linear_180_1387" x1="318.655" y1="149.811" x2="303.406" y2="149.811" gradientUnits="userSpaceOnUse">
<stop stop-color="#B8813E"/>
<stop offset="1" stop-color="#B8813E" stop-opacity="0"/>
</linearGradient>
<linearGradient id="paint10_linear_180_1387" x1="-5.19764" y1="162.653" x2="11.6572" y2="162.653" gradientUnits="userSpaceOnUse">
<stop stop-color="#C49D5A"/>
<stop offset="1" stop-color="#C49D5A" stop-opacity="0"/>
</linearGradient>
<linearGradient id="paint11_linear_180_1387" x1="101.927" y1="105.661" x2="90.0365" y2="86.0486" gradientUnits="userSpaceOnUse">
<stop stop-color="#D36C10"/>
<stop offset="0.636423" stop-color="#C78C36"/>
<stop offset="1" stop-color="#C78C36" stop-opacity="0"/>
</linearGradient>
<linearGradient id="paint12_linear_180_1387" x1="143.286" y1="75.259" x2="82.6644" y2="75.259" gradientUnits="userSpaceOnUse">
<stop stop-color="#6BE2FF"/>
<stop offset="1" stop-color="#66C8FF"/>
</linearGradient>
<linearGradient id="paint13_linear_180_1387" x1="74.7423" y1="62.5154" x2="77.5409" y2="63.7642" gradientUnits="userSpaceOnUse">
<stop stop-color="#419FDC"/>
<stop offset="1" stop-color="#419FDC" stop-opacity="0"/>
</linearGradient>
<radialGradient id="paint14_radial_180_1387" cx="0" cy="0" r="1" gradientUnits="userSpaceOnUse" gradientTransform="translate(176.523 94.5478) rotate(-36.2624) scale(61.7266 70.2576)">
<stop stop-color="#6EFDFF"/>
<stop offset="1" stop-color="#64C5FF"/>
</radialGradient>
<linearGradient id="paint15_linear_180_1387" x1="176.523" y1="68.0685" x2="180.43" y2="68.0685" gradientUnits="userSpaceOnUse">
<stop stop-color="#82F4FF"/>
<stop offset="1" stop-color="#82F4FF" stop-opacity="0"/>
</linearGradient>
<linearGradient id="paint16_linear_180_1387" x1="229.841" y1="39.6108" x2="229.841" y2="49.6993" gradientUnits="userSpaceOnUse">
<stop stop-color="#2468DA"/>
<stop offset="1" stop-color="#2468DA" stop-opacity="0"/>
</linearGradient>
<radialGradient id="paint17_radial_180_1387" cx="0" cy="0" r="1" gradientUnits="userSpaceOnUse" gradientTransform="translate(264.739 39.6108) rotate(133.818) scale(27.6492 9.81653)">
<stop offset="0.690764" stop-color="#63C3FF"/>
<stop offset="1" stop-color="#63C3FF" stop-opacity="0"/>
</radialGradient>
<linearGradient id="paint18_linear_180_1387" x1="269.583" y1="68.7795" x2="267.972" y2="69.6623" gradientUnits="userSpaceOnUse">
<stop offset="0.168788" stop-color="#88DBFF"/>
<stop offset="1" stop-color="#88DBFF" stop-opacity="0"/>
</linearGradient>
<linearGradient id="paint19_linear_180_1387" x1="297.468" y1="135.02" x2="297.468" y2="168.172" gradientUnits="userSpaceOnUse">
<stop stop-color="#F2A925"/>
<stop offset="1" stop-color="#FFD85A"/>
</linearGradient>
<linearGradient id="paint20_linear_180_1387" x1="296.225" y1="134.159" x2="314.308" y2="166.536" gradientUnits="userSpaceOnUse">
<stop offset="0.120499" stop-color="#E31C3A"/>
<stop offset="0.395025" stop-color="#FC4656"/>
<stop offset="1" stop-color="#FF4C5A"/>
</linearGradient>
<linearGradient id="paint21_linear_180_1387" x1="12.9158" y1="135.85" x2="12.9158" y2="168.744" gradientUnits="userSpaceOnUse">
<stop stop-color="#E8A04E"/>
<stop offset="1" stop-color="#F5BA41"/>
</linearGradient>
<radialGradient id="paint22_radial_180_1387" cx="0" cy="0" r="1" gradientUnits="userSpaceOnUse" gradientTransform="translate(3.8329 160.779) scale(27.5122 19.7351)">
<stop stop-color="white"/>
<stop offset="1" stop-color="#F0D0F9"/>
</radialGradient>
<linearGradient id="paint23_linear_180_1387" x1="26.523" y1="161.682" x2="17.051" y2="161.682" gradientUnits="userSpaceOnUse">
<stop stop-color="#E6DBDC"/>
<stop offset="1" stop-color="#E6DBDC" stop-opacity="0"/>
</linearGradient>
<linearGradient id="paint24_linear_180_1387" x1="110.995" y1="125.948" x2="133.285" y2="125.948" gradientUnits="userSpaceOnUse">
<stop stop-color="#4C336B"/>
<stop offset="1" stop-color="#3E2F4F"/>
</linearGradient>
<linearGradient id="paint25_linear_180_1387" x1="133.287" y1="148.238" x2="155.577" y2="148.238" gradientUnits="userSpaceOnUse">
<stop stop-color="#4C336B"/>
<stop offset="1" stop-color="#3E2F4F"/>
</linearGradient>
<linearGradient id="paint26_linear_180_1387" x1="155.577" y1="125.948" x2="177.867" y2="125.948" gradientUnits="userSpaceOnUse">
<stop stop-color="#4C336B"/>
<stop offset="1" stop-color="#3E2F4F"/>
</linearGradient>
<linearGradient id="paint27_linear_180_1387" x1="177.87" y1="148.238" x2="200.16" y2="148.238" gradientUnits="userSpaceOnUse">
<stop stop-color="#4C336B"/>
<stop offset="1" stop-color="#3E2F4F"/>
</linearGradient>
<linearGradient id="paint28_linear_180_1387" x1="200.161" y1="125.948" x2="222.451" y2="125.948" gradientUnits="userSpaceOnUse">
<stop stop-color="#4C336B"/>
<stop offset="1" stop-color="#3E2F4F"/>
</linearGradient>
<radialGradient id="paint29_radial_180_1387" cx="0" cy="0" r="1" gradientUnits="userSpaceOnUse" gradientTransform="translate(107.367 78.7786) rotate(90.434) scale(26.487 8.12641)">
<stop stop-color="#FFFF7C"/>
<stop offset="0.65802" stop-color="#F6C142"/>
</radialGradient>
<radialGradient id="paint30_radial_180_1387" cx="0" cy="0" r="1" gradientUnits="userSpaceOnUse" gradientTransform="translate(106.548 106.834) rotate(-118.426) scale(20.5322 22.4141)">
<stop stop-color="#EB9948"/>
<stop offset="1" stop-color="#EB9948" stop-opacity="0"/>
</radialGradient>
<radialGradient id="paint31_radial_180_1387" cx="0" cy="0" r="1" gradientUnits="userSpaceOnUse" gradientTransform="translate(111.352 68.0707) rotate(110.556) scale(26.8922 25.7066)">
<stop stop-color="#FFEC3F"/>
<stop offset="1" stop-color="#FFEC3F" stop-opacity="0"/>
</radialGradient>
<linearGradient id="paint32_linear_180_1387" x1="91.0774" y1="152.296" x2="76.9557" y2="196.501" gradientUnits="userSpaceOnUse">
<stop stop-color="#743515"/>
<stop offset="1" stop-color="#8A5424"/>
</linearGradient>
<linearGradient id="paint33_linear_180_1387" x1="256.6" y1="152.296" x2="242.479" y2="196.501" gradientUnits="userSpaceOnUse">
<stop stop-color="#743515"/>
<stop offset="1" stop-color="#8A5424"/>
</linearGradient>
<linearGradient id="paint34_linear_180_1387" x1="55.0155" y1="185.755" x2="112.479" y2="185.755" gradientUnits="userSpaceOnUse">
<stop offset="0.239044" stop-color="#34214F"/>
<stop offset="1" stop-color="#241337"/>
</linearGradient>
<radialGradient id="paint35_radial_180_1387" cx="0" cy="0" r="1" gradientUnits="userSpaceOnUse" gradientTransform="translate(72.6565 191.952) rotate(-65.5366) scale(20.8741 21.8023)">
<stop offset="0.523134" stop-color="#2D114D"/>
<stop offset="1" stop-color="#2B1249" stop-opacity="0"/>
</radialGradient>
<linearGradient id="paint36_linear_180_1387" x1="102.548" y1="182.608" x2="54.5459" y2="213.98" gradientUnits="userSpaceOnUse">
<stop offset="0.0830122" stop-color="#615B6B"/>
<stop offset="0.390771" stop-color="#615B6B" stop-opacity="0"/>
<stop offset="0.692394" stop-color="#615B6B" stop-opacity="0"/>
<stop offset="0.934982" stop-color="#615B6B"/>
</linearGradient>
<linearGradient id="paint37_linear_180_1387" x1="220.55" y1="185.755" x2="278.013" y2="185.755" gradientUnits="userSpaceOnUse">
<stop offset="0.239044" stop-color="#34214F"/>
<stop offset="1" stop-color="#241337"/>
</linearGradient>
<radialGradient id="paint38_radial_180_1387" cx="0" cy="0" r="1" gradientUnits="userSpaceOnUse" gradientTransform="translate(238.191 191.952) rotate(-65.5366) scale(20.8741 21.8023)">
<stop offset="0.523134" stop-color="#2D114D"/>
<stop offset="1" stop-color="#2B1249" stop-opacity="0"/>
</radialGradient>
<linearGradient id="paint39_linear_180_1387" x1="268.057" y1="182.608" x2="220.054" y2="213.98" gradientUnits="userSpaceOnUse">
<stop offset="0.0830122" stop-color="#615B6B"/>
<stop offset="0.390771" stop-color="#615B6B" stop-opacity="0"/>
<stop offset="0.692394" stop-color="#615B6B" stop-opacity="0"/>
<stop offset="0.934982" stop-color="#615B6B"/>
</linearGradient>
<linearGradient id="paint40_linear_180_1387" x1="86.7667" y1="183.412" x2="65.0977" y2="207.179" gradientUnits="userSpaceOnUse">
<stop stop-color="#D2C7DE"/>
<stop offset="1" stop-color="#D1C7DD"/>
</linearGradient>
<linearGradient id="paint41_linear_180_1387" x1="252.298" y1="183.413" x2="230.629" y2="207.179" gradientUnits="userSpaceOnUse">
<stop stop-color="#D2C7DE"/>
<stop offset="1" stop-color="#D1C7DD"/>
</linearGradient>
</defs>
</svg>
